<svg width="26" height="26" viewBox="0 0 26 26" fill="none" xmlns="http://www.w3.org/2000/svg">
<rect y="13" width="13" height="13" rx="2" fill="#38A2DE"/>
<path d="M14.3536 10.3536L15.1464 11.1464C15.3417 11.3417 15.6583 11.3417 15.8536 11.1464L20.6666 6.33337C20.8538 6.14617 21.1545 6.13733 21.3524 6.31322L24.6678 9.26028C24.9903 9.54691 25.5 9.318 25.5 8.88658V0.524376C25.5 0.238896 25.2614 0.0113631 24.9762 0.024942L16.2251 0.441664C15.7774 0.462981 15.5817 1.01707 15.9167 1.3148L19.1037 4.1477C19.3187 4.33883 19.3285 4.67154 19.125 4.87496L14.3536 9.64645C14.1583 9.84171 14.1583 10.1583 14.3536 10.3536Z" fill="#0E56C0"/>
</svg>
